<?xml version="1.0" encoding="UTF-8"?>
<svg id="Capa_2" data-name="Capa 2" xmlns="http://www.w3.org/2000/svg" viewBox="0 0 32 32">
  <defs>
    <style>
      .cls-1 {
        fill: #f4f5eb;
      }

      .cls-2 {
        fill: #1d1d1b;
      }
    </style>
  </defs>
  <g id="Capa_1-2" data-name="Capa 1">
    <rect class="cls-1" x="0" y="0" width="32" height="32" rx="16" ry="16"/>
    <g>
      <path class="cls-2" d="M19.4,12.4c-1,0-2.2,.6-3.2,1.7-.7-1.1-1.7-1.7-2.7-1.7-.8,0-1.8,.4-2.8,1.3v-1h-.3c-.2,0-.8,.2-.8,.4v8.9h.2c.3,0,.5-.1,.7-.2q.1-.1,.2-.2h0v-6.4c.1-1,.6-2.1,2-2.1s2.5,1.1,2.7,2.7v6.3h.1c.3,0,.5-.1,.7-.2l.2-.2h0v-5.7c0-2,.7-3,2-3,1.4,0,2.5,1.1,2.8,2.7v6.3h.3c.2,0,.8-.2,.8-.4v-5.9c.2-1.9-1.2-3.3-2.9-3.3"/>
      <path class="cls-2" d="M14.5,11.6h.4c.2,0,.4,0,.5-.1,.5-.2,1-.4,1.5-.6l.8-.3h.1l.1-.1-.2-.1c-.1,0-.1-.1-.2-.1-.2-.3-.4-.3-.6-.3s-.3,0-.4,.1c-.5,.3-1,.6-1.5,.9-.2,.1-.4,.2-.6,.4,0,0-.1,.1,0,.1l.1,.1q-.1,0,0,0"/>
    </g>
  </g>
</svg>